<?xml version="1.0" standalone="no"?>
<!DOCTYPE svg PUBLIC "-//W3C//DTD SVG 20010904//EN"
 "http://www.w3.org/TR/2001/REC-SVG-20010904/DTD/svg10.dtd">
<svg version="1.0" xmlns="http://www.w3.org/2000/svg"
 width="1280.000000pt" height="786.000000pt" viewBox="0 0 1280.000000 786.000000"
 preserveAspectRatio="xMidYMid meet">
<metadata>
Created by potrace 1.15, written by Peter Selinger 2001-2017
</metadata>
<g transform="translate(0.000000,786.000000) scale(0.100000,-0.100000)"
fill="#000000" stroke="none">
<path d="M11417 7850 c-159 -25 -296 -76 -418 -155 -130 -84 -313 -278 -478
-507 -35 -49 -70 -88 -77 -88 -17 0 -28 26 -43 100 -15 71 -26 89 -43 72 -9
-9 -14 -63 -18 -182 l-5 -168 -35 -50 c-63 -90 -199 -248 -275 -321 -114 -108
-228 -188 -350 -247 -148 -70 -190 -79 -370 -78 -148 1 -152 1 -275 42 -69 23
-135 48 -147 57 -11 8 -37 44 -57 79 -22 40 -90 122 -179 217 -78 83 -157 170
-175 192 -31 39 -72 147 -72 191 0 23 -26 66 -39 66 -5 0 -12 -117 -17 -259
-5 -143 -12 -262 -16 -266 -4 -4 -47 0 -95 8 -176 32 -268 38 -365 26 -302
-36 -534 -155 -773 -394 -148 -148 -234 -268 -325 -450 -85 -173 -121 -282
-211 -645 -39 -156 -75 -292 -80 -302 -9 -17 -12 -17 -32 -3 -51 36 -255 249
-285 298 -19 32 -39 84 -48 127 -17 82 -31 107 -48 90 -8 -8 -13 -208 -16
-650 -5 -577 -7 -641 -22 -656 -11 -12 -51 -20 -140 -29 -94 -10 -140 -21
-197 -44 -41 -17 -89 -31 -107 -31 -119 0 -415 66 -714 160 -242 76 -255 82
-285 144 -13 28 -32 83 -40 121 -27 118 -48 113 -60 -14 -9 -106 -14 -121 -37
-121 -21 0 -462 101 -555 127 -58 16 -83 35 -83 62 0 36 -31 118 -61 164 -17
25 -78 97 -136 159 -120 128 -170 197 -179 248 -8 47 -25 90 -35 90 -14 0 -18
-57 -22 -328 -3 -159 -8 -267 -14 -273 -7 -7 -56 -4 -149 10 -608 89 -1139 52
-1624 -113 -58 -20 -110 -36 -117 -36 -18 0 -7 23 60 129 115 182 223 423 268
600 48 187 63 475 34 666 -45 296 -189 678 -299 791 -78 80 -134 84 -228 14
-114 -85 -239 -280 -303 -472 -69 -211 -100 -429 -99 -723 0 -248 8 -335 56
-577 17 -86 28 -168 24 -181 -3 -13 -85 -106 -182 -207 -317 -330 -430 -462
-531 -618 -126 -195 -206 -376 -244 -553 -33 -149 -33 -438 -1 -586 61 -280
183 -507 376 -698 99 -98 182 -159 301 -218 96 -48 248 -98 355 -118 90 -16
315 -16 434 0 117 16 120 15 129 -78 6 -52 32 -169 109 -496 18 -72 22 -122
22 -255 1 -148 -1 -172 -22 -233 -44 -126 -145 -232 -282 -296 -156 -73 -307
-81 -418 -21 -68 36 -117 82 -109 103 3 8 27 17 58 21 110 15 191 72 239 169
74 151 38 364 -80 470 -74 67 -107 79 -214 79 -126 0 -164 -12 -235 -78 -115
-106 -163 -216 -163 -369 0 -214 110 -378 318 -476 100 -47 181 -67 304 -75
147 -10 262 13 400 79 91 43 226 178 268 267 49 104 66 209 59 374 -5 143 -23
248 -107 621 -17 77 -34 170 -37 206 -5 61 -4 67 18 83 13 9 72 48 131 86 286
188 425 420 444 740 7 115 10 125 38 138 49 22 340 104 436 123 270 52 625 64
950 33 l165 -16 39 -40 c22 -21 53 -46 69 -55 51 -26 134 -28 224 -4 90 23
101 22 308 -24 227 -50 760 -186 950 -242 451 -132 610 -168 807 -183 68 -5
138 -10 156 -10 17 0 32 -4 32 -9 0 -4 -30 -26 -66 -47 -150 -88 -213 -213
-151 -304 31 -48 78 -72 150 -77 125 -10 255 38 346 129 68 68 81 113 81 281
l0 130 90 89 c99 99 173 202 228 320 20 43 41 77 47 75 5 -2 19 -19 30 -38 17
-29 20 -52 20 -149 0 -124 -6 -151 -61 -264 -35 -74 -36 -98 -2 -56 44 53 107
204 124 298 19 108 11 171 -36 286 l-29 69 38 141 c22 78 67 253 101 390 100
408 160 563 297 771 212 322 493 543 791 622 123 33 327 37 465 10 150 -30
137 -13 137 -182 l0 -145 -99 1 c-144 2 -187 -15 -283 -110 -65 -66 -79 -85
-94 -136 -57 -195 22 -343 177 -333 112 8 261 114 316 226 l28 57 6 280 c4
154 7 281 8 283 3 9 78 -15 206 -65 515 -202 570 -218 765 -218 151 0 222 19
381 102 269 139 460 335 804 828 150 215 217 298 329 408 274 270 538 344 979
277 186 -28 191 -26 164 49 -23 66 -686 1467 -745 1576 -31 58 -50 66 -196 91
-113 18 -351 26 -429 14z m340 -65 c168 -22 200 -32 227 -69 25 -32 136 -267
136 -285 0 -14 -63 -13 -120 2 -52 14 -58 26 -59 139 -1 67 -12 101 -27 85 -3
-2 -7 -50 -11 -106 l-6 -101 -56 0 c-87 0 -265 -19 -339 -36 -249 -58 -440
-197 -677 -493 -55 -68 -105 -126 -112 -128 -14 -5 -154 125 -194 181 l-28 38
18 37 c35 67 230 319 323 416 152 160 278 242 443 290 164 48 287 55 482 30z
m138 -415 c11 -17 17 -213 8 -274 l-8 -59 -101 -17 c-319 -54 -526 -194 -794
-539 l-105 -135 -6 35 c-4 19 -12 63 -18 99 -6 42 -26 96 -56 154 l-46 89 37
56 c156 236 380 447 557 526 64 28 149 54 215 65 70 12 310 12 317 0z m190
-18 l80 -17 72 -145 c40 -80 73 -153 73 -162 0 -13 -8 -18 -27 -18 -59 0 -319
33 -330 43 -16 12 -18 269 -3 298 13 23 31 23 135 1z m-180 -435 c-1 -26 -2
-109 -3 -185 l-2 -138 -82 -27 c-107 -35 -216 -96 -318 -176 -139 -110 -234
-222 -470 -556 -240 -340 -344 -466 -484 -583 -192 -162 -358 -244 -555 -272
-68 -10 -96 -10 -183 5 -128 21 -282 70 -461 146 -75 33 -141 59 -145 59 -5 0
-19 12 -33 26 -22 24 -24 33 -23 125 1 59 6 105 12 111 9 9 53 -2 172 -41 205
-67 272 -81 391 -81 124 0 190 13 306 60 277 113 529 346 808 744 339 485 469
624 694 740 47 24 113 52 146 61 53 16 194 35 220 30 6 -1 10 -23 10 -48z
m333 28 c133 -26 126 -20 194 -162 64 -136 81 -193 56 -193 -8 0 -39 5 -70 10
-31 6 -150 14 -264 18 l-209 7 -3 159 c-2 116 1 162 10 174 10 12 30 14 108 9
52 -3 132 -13 178 -22z m-1704 -175 c35 -16 75 -41 89 -56 32 -31 33 -28 -66
-169 -95 -136 -136 -185 -152 -185 -9 0 -16 18 -20 53 -8 60 8 368 20 386 10
18 52 8 129 -29z m-195 -271 l1 -247 -101 -97 c-182 -174 -345 -276 -524 -326
-148 -42 -396 -23 -525 39 l-35 17 -3 139 -3 138 123 -6 c101 -5 139 -3 213
12 257 55 503 227 779 546 51 59 61 66 67 50 4 -10 8 -130 8 -265z m434 33
c29 -62 32 -77 35 -192 l4 -125 -82 -115 c-117 -164 -268 -343 -313 -373 l-22
-14 0 257 0 257 41 49 c23 27 81 103 129 169 122 169 131 178 156 164 12 -6
35 -41 52 -77z m-2243 27 c92 -43 197 -135 177 -155 -3 -3 -43 10 -88 29 -46
19 -107 42 -135 51 -49 16 -94 47 -94 66 0 49 49 52 140 9z m3895 -24 c50 -9
101 -22 115 -28 38 -18 177 -303 157 -323 -3 -3 -71 2 -152 12 -126 15 -164
16 -268 6 -128 -12 -256 -42 -369 -86 -38 -14 -68 -22 -68 -16 0 5 13 24 29
42 15 18 36 47 44 65 18 33 37 172 37 265 0 62 5 68 60 79 55 12 315 2 415
-16z m-527 -42 c4 -27 -23 -31 -54 -8 -16 13 -17 16 -4 25 24 16 55 7 58 -17z
m-3663 -6 c39 -10 76 -21 84 -26 18 -12 36 -163 27 -234 l-7 -57 -102 0 c-399
-1 -664 -113 -947 -399 -151 -152 -239 -273 -325 -446 -83 -170 -118 -278
-221 -687 -101 -402 -137 -516 -209 -663 -71 -146 -124 -223 -209 -309 -118
-118 -244 -172 -428 -182 -207 -12 -367 15 -713 117 l-170 50 -44 79 c-24 43
-74 113 -113 156 -85 97 -96 114 -70 114 10 0 98 -22 195 -49 193 -54 318 -83
442 -101 117 -18 119 -19 95 -81 -30 -76 -27 -131 11 -174 40 -45 73 -62 135
-70 129 -17 335 80 398 188 25 42 46 138 46 210 0 34 9 47 73 115 110 116 188
237 248 386 19 50 41 92 47 94 22 7 42 -64 42 -144 0 -88 -17 -164 -60 -257
-35 -78 -38 -97 -11 -72 28 24 97 170 116 241 8 33 15 101 15 156 0 82 -4 109
-25 160 -14 34 -25 70 -25 80 0 33 170 699 205 804 84 251 242 494 457 700
163 156 357 265 553 310 87 19 397 14 490 -9z m302 -93 c54 -20 130 -51 170
-70 91 -41 103 -64 103 -189 0 -105 -5 -108 -109 -72 -42 14 -110 35 -151 47
-41 11 -94 28 -117 36 l-43 16 0 127 c0 70 3 131 7 134 13 13 45 7 140 -29z
m3351 -23 c10 -105 -241 -305 -298 -236 -29 35 60 168 160 238 45 31 62 37 95
35 37 -3 40 -5 43 -37z m-335 -78 c-21 -71 -13 -153 20 -197 31 -40 69 -51
146 -44 l48 5 -136 -136 c-148 -148 -232 -252 -421 -521 -181 -259 -240 -332
-384 -475 -251 -249 -462 -355 -716 -358 -163 -2 -263 26 -600 166 -113 46
-229 92 -258 102 -29 9 -65 27 -80 40 -25 22 -26 26 -26 129 1 69 5 111 13
119 13 13 29 8 261 -87 199 -81 306 -106 475 -113 109 -4 156 -1 210 11 90 21
265 109 380 191 199 142 310 268 622 705 189 265 310 412 390 474 64 50 75 48
56 -11z m-2555 -79 c42 -14 82 -30 89 -36 9 -7 13 -47 13 -136 l0 -125 -38 5
c-20 3 -74 22 -120 43 -65 30 -82 42 -82 59 0 29 19 188 25 204 6 18 27 15
113 -14z m1336 -136 c3 -29 6 -75 6 -102 l0 -49 -97 7 c-54 4 -104 11 -111 15
-11 6 12 32 83 95 53 47 100 86 105 86 4 0 10 -24 14 -52z m-2015 13 c40 -25
41 -300 1 -321 -9 -5 -61 -16 -116 -25 -126 -20 -300 -79 -397 -135 -270 -154
-505 -413 -657 -725 -77 -156 -113 -270 -211 -665 -102 -407 -132 -500 -219
-675 -129 -260 -260 -388 -460 -450 -75 -23 -303 -31 -423 -15 -114 15 -374
80 -617 155 -222 69 -243 79 -235 106 4 11 15 65 25 120 10 55 20 103 24 106
3 4 75 -12 159 -35 298 -81 553 -120 705 -108 265 22 462 135 601 348 117 177
192 387 316 878 94 375 123 468 199 621 172 346 476 647 769 763 134 53 200
65 367 65 85 1 161 -3 169 -8z m273 -61 c68 -22 138 -49 156 -60 31 -19 31
-20 18 -58 -8 -21 -24 -58 -36 -81 -12 -24 -19 -46 -15 -49 6 -6 17 8 70 87
46 68 48 68 165 22 159 -62 150 -50 150 -192 0 -69 -4 -119 -10 -119 -5 0 -63
20 -129 45 -165 61 -276 92 -416 115 -66 11 -123 24 -128 29 -13 13 -27 126
-27 219 l0 82 40 0 c21 0 95 -18 162 -40z m-7012 -60 c66 -34 104 -95 120
-195 13 -81 1 -207 -31 -325 -41 -155 -169 -380 -312 -548 -86 -101 -212 -212
-242 -212 -39 0 -50 87 -50 385 0 288 7 346 61 515 60 185 158 326 265 378 58
28 137 29 189 2z m7707 -197 c139 -34 336 -38 451 -9 40 10 75 17 77 15 2 -3
-3 -30 -12 -61 -20 -70 -12 -118 28 -163 35 -40 105 -65 182 -65 65 0 58 -18
-18 -49 -119 -47 -310 -63 -435 -37 -88 19 -285 83 -341 111 -70 36 -74 44
-74 159 1 98 6 126 25 126 5 0 57 -12 117 -27z m-602 -129 c145 -39 339 -107
383 -134 l32 -20 0 -120 c0 -68 -4 -120 -9 -120 -6 0 -74 16 -153 35 -180 45
-311 59 -458 51 -150 -7 -259 -35 -396 -101 -258 -122 -458 -301 -628 -562
-137 -210 -207 -394 -307 -805 -98 -407 -163 -618 -188 -618 -26 0 -68 94
-101 228 -6 23 -17 42 -24 42 -20 0 -26 -70 -26 -329 l0 -236 -35 -53 c-65
-96 -216 -193 -355 -228 -52 -13 -100 -15 -255 -11 -175 5 -201 8 -330 40 -77
20 -192 51 -255 71 -271 82 -470 138 -695 195 -333 85 -332 85 -339 124 -11
65 -18 197 -12 221 5 20 13 26 34 26 39 0 281 -67 309 -85 24 -16 24 -15 -11
-97 -24 -56 -6 -46 42 22 24 33 48 60 55 60 7 0 107 -27 222 -60 458 -132 644
-170 830 -170 306 1 519 109 674 341 123 184 187 358 312 853 45 177 99 374
121 440 88 266 231 491 449 701 100 97 186 165 208 165 7 0 11 -24 11 -60 0
-55 3 -63 36 -99 97 -108 327 -80 474 58 59 55 89 118 97 205 4 48 10 66 22
69 35 10 152 -7 266 -39z m99 -389 c116 -20 302 -81 310 -101 9 -24 7 -252 -2
-258 -5 -3 -51 2 -103 10 -71 12 -141 15 -284 11 -171 -4 -198 -7 -273 -31
-362 -117 -682 -407 -877 -797 -78 -154 -135 -329 -220 -674 -81 -325 -105
-407 -123 -413 -17 -5 -171 146 -178 175 -3 12 7 63 25 115 47 146 85 283 156
568 79 321 111 422 180 565 96 200 200 341 381 515 165 158 316 249 504 304
75 22 105 25 251 25 106 1 198 -4 253 -14z m-2525 -464 c75 -36 171 -128 171
-164 0 -104 -246 -547 -305 -547 -20 0 -25 82 -25 417 0 353 -1 350 67 331 21
-5 62 -22 92 -37z m-2707 -173 c96 -51 188 -168 188 -239 l0 -32 -49 7 c-27 4
-98 19 -158 34 l-108 27 -3 104 c-1 58 0 111 2 118 9 23 66 14 128 -19z m5516
-184 c52 -36 7 -141 -112 -260 -75 -75 -148 -119 -214 -130 -33 -5 -44 -2 -62
16 -44 44 -3 126 132 256 71 69 108 96 149 112 66 26 78 26 107 6z m-6266 -14
c248 -17 541 -59 562 -80 11 -11 13 -286 3 -297 -3 -3 -91 3 -194 12 -262 24
-671 17 -858 -14 -281 -47 -510 -113 -750 -214 -158 -68 -189 -87 -193 -120
-2 -15 -1 -27 1 -27 2 0 53 21 113 46 363 153 710 248 1004 274 232 20 606 9
750 -22 l55 -12 -77 -12 c-85 -13 -167 -50 -216 -97 -43 -41 -53 -60 -66 -126
-13 -65 -15 -66 -163 -76 -266 -18 -592 -85 -830 -171 -279 -101 -259 -96
-341 -84 -40 5 -103 10 -140 10 -90 0 -114 14 -125 70 -4 25 -28 146 -52 270
-25 124 -45 240 -45 257 0 38 58 115 116 155 70 48 451 168 674 212 241 48
507 64 772 46z m778 -110 c144 -32 168 -40 174 -63 7 -27 -12 -113 -35 -159
-22 -43 -23 -48 -9 -48 11 0 52 78 70 135 20 63 37 78 86 70 43 -6 430 -102
526 -130 89 -25 90 -28 86 -166 -2 -68 -8 -123 -14 -129 -16 -16 -754 153
-771 176 -10 14 -15 14 -27 5 -11 -9 -35 -8 -107 4 -101 18 -123 26 -133 51
-3 8 -6 74 -6 145 l0 129 33 0 c18 0 75 -9 127 -20z m45 -385 c183 -34 647
-138 754 -169 46 -14 88 -30 92 -38 5 -7 8 -69 7 -138 l-3 -125 -45 2 c-25 0
-137 22 -250 47 -250 55 -508 102 -693 126 -76 9 -143 22 -149 28 -7 7 -1 22
20 49 37 45 59 104 68 176 8 74 10 78 36 73 13 -3 86 -17 163 -31z m1053 -31
c47 -23 96 -57 133 -93 63 -60 75 -91 37 -91 -45 0 -293 71 -305 87 -16 20
-17 87 -3 114 16 28 53 24 138 -17z m-3541 -29 c19 -53 102 -467 97 -480 -3
-5 -45 -36 -94 -69 -222 -145 -359 -315 -406 -506 -23 -92 -15 -321 14 -403
74 -206 219 -359 399 -419 30 -11 64 -16 74 -13 17 6 7 19 -68 88 -137 126
-163 157 -197 227 -28 58 -31 74 -30 150 3 192 97 341 284 450 67 39 103 49
115 31 6 -11 163 -781 205 -1010 17 -89 30 -178 30 -197 0 -30 -4 -34 -37 -45
-21 -6 -119 -13 -219 -16 -144 -4 -195 -2 -252 11 -326 74 -578 271 -708 551
-59 128 -68 180 -68 375 0 160 2 184 27 275 29 106 119 299 186 400 70 107
202 255 400 453 212 211 223 218 248 147z m3585 -196 c84 -23 166 -48 181 -56
38 -19 47 -49 47 -153 0 -71 -4 -92 -19 -111 l-19 -23 -93 24 c-228 58 -273
74 -287 100 -14 27 -13 224 1 248 12 18 20 16 189 -29z m-1527 -79 c293 -15
715 -84 1100 -180 105 -26 164 -45 172 -57 15 -20 18 -240 3 -263 -8 -13 -45
-7 -272 38 -461 93 -674 117 -1023 117 -183 -1 -283 -5 -374 -18 -183 -26
-368 -64 -502 -103 -65 -18 -123 -34 -129 -34 -6 0 -46 33 -89 73 -43 40 -119
99 -169 131 -51 32 -92 61 -92 66 0 21 328 127 540 174 277 61 485 75 835 56z
m125 -410 c232 -9 368 -25 665 -76 197 -34 224 -49 148 -81 -68 -28 -131 -83
-179 -154 -46 -69 -47 -70 -83 -65 -98 16 -288 26 -496 26 -336 0 -554 -29
-868 -117 -104 -29 -171 -43 -177 -37 -5 5 -21 49 -35 98 -14 49 -39 120 -55
158 -17 39 -30 74 -30 78 0 25 280 105 489 140 103 17 220 30 366 38 11 1 126
-3 255 -8z m3725 -189 c74 -43 125 -96 125 -131 0 -43 -110 -252 -186 -353
-63 -84 -105 -119 -122 -103 -4 4 -7 112 -6 239 1 251 0 246 62 340 31 46 58
48 127 8z m-2194 -81 c134 -34 375 -99 534 -145 517 -149 570 -159 830 -160
155 0 201 4 249 19 79 23 198 84 265 135 30 23 58 41 62 41 16 0 19 -41 19
-246 l0 -214 -60 -30 c-105 -53 -167 -64 -350 -64 -219 0 -313 20 -835 177
-227 69 -461 130 -765 201 -324 75 -358 84 -364 94 -3 4 13 30 34 57 36 45 50
80 65 163 6 28 10 32 40 32 18 0 142 -27 276 -60z m-3165 24 c22 -11 39 -23
38 -29 -1 -12 -132 -107 -186 -136 -37 -19 -37 -19 -48 0 -15 29 -34 155 -27
176 7 16 17 17 96 13 58 -4 102 -12 127 -24z m187 -123 c92 -98 165 -243 139
-274 -7 -8 -54 -40 -105 -70 -94 -56 -166 -108 -255 -185 -28 -23 -53 -39 -55
-35 -5 8 -67 293 -81 371 -5 28 0 38 31 73 56 62 222 168 264 169 9 0 37 -22
62 -49z m171 -367 c12 -30 6 -216 -9 -292 -21 -105 -81 -224 -146 -290 -57
-58 -141 -112 -176 -112 -26 0 -29 10 -68 227 -29 166 -29 164 26 234 40 51
153 141 250 199 87 53 113 60 123 34z m4766 -241 c0 -13 -7 -26 -16 -30 -19
-7 -124 15 -124 27 0 7 50 29 100 43 22 6 40 -12 40 -40z"/>
</g>
</svg>
